<svg width="161" height="27" viewBox="0 0 161 27" fill="none" xmlns="http://www.w3.org/2000/svg">
<g clip-path="url(#clip0_726_71)">
<path d="M105.184 13.5733V13.4988C105.184 6.04389 111.202 -0.00248337 119.227 -0.00248337C127.251 -0.00248337 133.195 5.96936 133.195 13.4242V13.4988C133.195 20.9536 127.176 27 119.152 27C111.128 27 105.184 21.0282 105.184 13.5733ZM125.838 13.5733V13.4988C125.838 9.75269 123.126 6.48855 119.152 6.48855C115.178 6.48855 112.576 9.67817 112.576 13.4242V13.4988C112.576 17.2448 115.288 20.509 119.227 20.509C123.165 20.509 125.84 17.3193 125.84 13.5733H125.838Z" fill="black"/>
<path d="M3.50076 17.3194L13.1199 6.5109H6.57859C3.19224 6.5109 0.447818 3.77091 0.447818 0.390011H23.1396C23.1396 3.78085 21.8931 7.05244 19.6388 9.58626L10.0197 20.3947H17.0114C20.3977 20.3947 23.1421 23.1347 23.1421 26.5156H0.00244141C0.00244141 23.1248 1.249 19.8532 3.50325 17.3194H3.50076Z" fill="black"/>
<path d="M26.9141 0.390011H47.9588C47.9588 3.79078 45.197 6.54817 41.7907 6.54817H34.0899V10.5054H46.65V16.2164H34.0899V20.3599H41.9773C45.3836 20.3599 48.1454 23.1173 48.1454 26.5181H26.9116V0.390011H26.9141Z" fill="black"/>
<path d="M51.8477 0.390011C56.1173 0.390011 60.1481 2.35744 62.7706 5.72095L69.3816 14.1993V7.55672C69.3816 3.59951 72.5938 0.390011 76.5599 0.390011V26.5156C72.549 26.5156 68.7645 24.6674 66.3013 21.5101L59.0284 12.1847V19.3514C59.0284 23.3086 55.8162 26.5181 51.8501 26.5181V0.390011H51.8477Z" fill="black"/>
<path d="M86.2735 6.73448H81.7402C80.8245 6.73448 80.0806 5.99421 80.0806 5.07756V0.390011H103.034V5.07756C103.034 5.99172 102.292 6.73448 101.374 6.73448H96.8407C95.925 6.73448 95.1811 7.47475 95.1811 8.39139V26.5156H87.9282V8.39139C87.9282 7.47723 87.1867 6.73448 86.2686 6.73448H86.2735Z" fill="black"/>
<path d="M144.178 18.6036V22.8913C144.178 24.8935 142.553 26.5156 140.548 26.5156H136.925V0.390011H149.298C153.297 0.390011 156.064 1.43583 157.82 3.22689C159.353 4.71985 160.139 6.73448 160.139 9.31052V9.38504C160.139 13.3795 158.009 16.0276 154.757 17.4088L161 26.5156H154.571C153.356 26.5156 152.222 25.9095 151.548 24.8984L148.111 19.7414C147.639 19.0309 146.84 18.6036 145.987 18.6036H144.178ZM148.962 12.9299C151.431 12.9299 152.849 11.735 152.849 9.83219V9.75766C152.849 7.70577 151.354 6.65995 148.925 6.65995H144.178V12.9299H148.962Z" fill="black"/>
</g>
<defs>
<clipPath id="clip0_726_71">
<rect width="161" height="27" fill="white"/>
</clipPath>
</defs>
</svg>
