<svg width="284" height="48" viewBox="0 0 284 48" fill="none" xmlns="http://www.w3.org/2000/svg">
<g clip-path="url(#clip0_726_39)">
<path d="M185.537 24.1346V24.0021C185.537 10.749 196.154 -0.000106812 210.309 -0.000106812C224.463 -0.000106812 234.949 10.6165 234.949 23.8696V24.0021C234.949 37.2552 224.332 48.0043 210.177 48.0043C196.022 48.0043 185.537 37.3877 185.537 24.1346ZM221.97 24.1346V24.0021C221.97 17.3424 217.186 11.5395 210.177 11.5395C203.168 11.5395 198.577 17.2099 198.577 23.8696V24.0021C198.577 30.6618 203.361 36.4647 210.309 36.4647C217.257 36.4647 221.975 30.7943 221.975 24.1346H221.97Z" fill="#00EA6F"/>
<path d="M6.17096 30.7943L23.1389 11.5793H11.6002C5.62672 11.5793 0.785634 6.70815 0.785634 0.697662H40.8134C40.8134 6.72582 38.6146 12.542 34.6381 17.0465L17.6702 36.2616H30.0033C35.9768 36.2616 40.8178 41.1327 40.8178 47.1431H0C0 41.115 2.1989 35.2988 6.17534 30.7943H6.17096Z" fill="#00EA6F"/>
<path d="M47.4717 0.697662H84.594C84.594 6.74348 79.7222 11.6455 73.7136 11.6455H60.1296V18.6805H82.2853V28.8335H60.1296V36.1997H74.0428C80.0513 36.1997 84.9231 41.1017 84.9231 47.1476H47.4673V0.697662H47.4717Z" fill="#00EA6F"/>
<path d="M91.4541 0.697662C98.9857 0.697662 106.096 4.19532 110.722 10.1749L122.383 25.2475V13.4385C122.383 6.40343 128.05 0.697662 135.046 0.697662V47.1432C127.971 47.1432 121.295 43.8575 116.95 38.2444L104.121 21.6659V34.4067C104.121 41.4418 98.4546 47.1476 91.4585 47.1476V0.697662H91.4541Z" fill="#00EA6F"/>
<path d="M152.181 11.9767H144.184C142.569 11.9767 141.256 10.6607 141.256 9.03109V0.697662H181.745V9.03109C181.745 10.6563 180.437 11.9767 178.818 11.9767H170.821C169.206 11.9767 167.893 13.2927 167.893 14.9223V47.1431H155.099V14.9223C155.099 13.2972 153.791 11.9767 152.172 11.9767H152.181Z" fill="#00EA6F"/>
<path d="M254.321 33.0775V40.6999C254.321 44.2593 251.455 47.1431 247.918 47.1431H241.527V0.697662H263.354C270.407 0.697662 275.288 2.5569 278.386 5.741C281.09 8.39515 282.477 11.9767 282.477 16.5563V16.6888C282.477 23.7901 278.72 28.4978 272.983 30.9533L283.995 47.1431H272.654C270.512 47.1431 268.511 46.0656 267.322 44.2682L261.26 35.1001C260.426 33.837 259.018 33.0775 257.512 33.0775H254.321ZM262.761 22.9908C267.115 22.9908 269.617 20.8666 269.617 17.4838V17.3513C269.617 13.7035 266.979 11.8442 262.696 11.8442H254.321V22.9908H262.761Z" fill="#00EA6F"/>
</g>
<defs>
<clipPath id="clip0_726_39">
<rect width="284" height="48" fill="white"/>
</clipPath>
</defs>
</svg>
