<?xml version="1.0" encoding="UTF-8"?>
<svg id="Layer_2" data-name="Layer 2" xmlns="http://www.w3.org/2000/svg" viewBox="0 0 881.38 135.51">
  <defs>
    <style>
      .cls-1 {
        fill: #00ea6f;
      }

      .cls-1, .cls-2, .cls-3 {
        stroke-width: 0px;
      }

      .cls-4 {
        fill: none;
        stroke: #000;
        stroke-miterlimit: 10;
      }

      .cls-2 {
        fill: #00684d;
      }

      .cls-3 {
        fill: #fff;
      }
    </style>
  </defs>
  <g id="Layer_1-2" data-name="Layer 1">
    <g>
      <g>
        <path class="cls-3" d="M657.05,68.3v-.3c0-30.01,24.19-54.35,56.44-54.35s56.14,24.04,56.14,54.05v.3c0,30.01-24.19,54.35-56.44,54.35s-56.14-24.04-56.14-54.05ZM740.06,68.3v-.3c0-15.08-10.9-28.22-26.87-28.22s-26.43,12.84-26.43,27.92v.3c0,15.08,10.9,28.22,26.73,28.22s26.58-12.84,26.58-27.92Z"/>
        <path class="cls-3" d="M248.38,83.38l38.66-43.51h-26.29c-13.61,0-24.64-11.03-24.64-24.64h0s91.2,0,91.2,0h0c0,13.65-5.01,26.82-14.07,37.02l-38.66,43.51h28.1c13.61,0,24.64,11.03,24.64,24.64h0s-93,0-93,0h0c0-13.65,5.01-26.82,14.07-37.02Z"/>
        <path class="cls-3" d="M342.48,15.23h84.58c0,13.69-11.1,24.79-24.79,24.79h-30.95v15.93h50.48v22.99h-50.48v16.68h31.7c13.69,0,24.79,11.1,24.79,24.79h0s-85.34,0-85.34,0V15.23Z"/>
        <path class="cls-3" d="M442.69,15.23h0c17.16,0,33.36,7.92,43.9,21.46l26.57,34.13v-26.74c0-15.93,12.91-28.85,28.85-28.85h0v105.17h0c-16.12,0-31.33-7.44-41.23-20.15l-29.23-37.54v28.85c0,15.93-12.91,28.85-28.85,28.85h0V15.23Z"/>
        <path class="cls-3" d="M581.05,40.77h-18.22c-3.68,0-6.67-2.98-6.67-6.67V15.23h92.25v18.87c0,3.68-2.98,6.67-6.67,6.67h-18.22c-3.68,0-6.67,2.98-6.67,6.67v72.96h-29.15V47.43c0-3.68-2.98-6.67-6.67-6.67Z"/>
        <path class="cls-3" d="M813.77,88.54v17.26c0,8.06-6.53,14.59-14.59,14.59h-14.56V15.23h49.73c16.07,0,27.19,4.21,34.25,11.42,6.16,6.01,9.32,14.12,9.32,24.49v.3c0,16.08-8.56,26.74-21.63,32.3l25.09,36.66h-25.84c-4.88,0-9.44-2.44-12.15-6.51l-13.81-20.76c-1.9-2.86-5.11-4.58-8.54-4.58h-7.27ZM833,65.71c9.92,0,15.62-4.81,15.62-12.47v-.3c0-8.26-6.01-12.47-15.77-12.47h-19.08v25.24h19.23Z"/>
      </g>
      <g>
        <polygon class="cls-2" points="42.91 83.75 42.92 83.75 97.97 53.27 150.7 52.44 150.69 52.44 95.98 82.74 42.91 83.75"/>
        <g>
          <path class="cls-1" d="M193.95.5l-13.87,29.03c-5.59,11.78-16.6,20.36-29.39,22.91h0c-2.69.54-5.45.83-8.26.83H0l13.87-29.03C20.8,9.73,35.44.5,51.52.5h142.43Z"/>
          <path class="cls-1" d="M193.41,82.74l-13.87,29.03c-6.93,14.51-21.57,23.74-37.65,23.74H.54l13.87-29.03c2.05-4.28,4.76-8.1,7.99-11.36h0c5.58-5.64,12.7-9.6,20.51-11.36h0s0,0,0,0c2.96-.67,6.03-1.01,9.15-1.01h141.35Z"/>
        </g>
        <line class="cls-4" x1="193.95" y1=".5" x2="193.27" y2=".5"/>
      </g>
    </g>
  </g>
</svg>